<?xml version="1.0" encoding="UTF-8"?>
<svg xmlns="http://www.w3.org/2000/svg" xmlns:xlink="http://www.w3.org/1999/xlink" version="1.1" viewBox="0 0 1500 500">
  <!-- Generator: Adobe Illustrator 30.3.0, SVG Export Plug-In . SVG Version: 2.1.3 Build 182)  -->
  <defs>
    <style>
      .st0 {
        fill: #d54b46;
      }

      .st0, .st1 {
        font-family: Monoton-Regular, BHPXMK+Monoton-Regular;
        font-size: 71px;
      }

      .st2 {
        font-family: MyriadPro-Regular, 'Myriad Pro';
        font-size: 12px;
      }

      .st3 {
        stroke: #2c51e8;
      }

      .st3, .st4, .st5, .st6, .st7, .st8, .st9, .st10, .st11, .st12 {
        fill: none;
        stroke-linecap: round;
        stroke-linejoin: round;
      }

      .st3, .st5, .st6, .st7, .st8, .st9, .st10, .st11, .st12 {
        stroke-width: 5.2px;
      }

      .st13 {
        fill: url(#radial-gradient);
        opacity: .7;
      }

      .st4 {
        stroke-width: 2.2px;
      }

      .st4, .st7 {
        stroke: #fff;
      }

      .st5 {
        stroke: #fdff11;
      }

      .st14 {
        fill: #fff;
      }

      .st6 {
        stroke: #8518ad;
      }

      .st1 {
        fill: #fdff11;
      }

      .st8 {
        stroke: #cf007e;
      }

      .st9 {
        stroke: #d220ef;
      }

      .st10 {
        stroke: #d54b46;
      }

      .st11 {
        stroke: #8bfeff;
      }

      .st12 {
        stroke: #8aed60;
      }

      .st15 {
        fill: #3f006b;
      }

      .st16 {
        fill: #8bfeff;
      }
    </style>
    <radialGradient id="radial-gradient" cx="387" cy="277" fx="387" fy="277" r="559" gradientTransform="translate(941 -110) rotate(90) scale(1 2)" gradientUnits="userSpaceOnUse">
      <stop offset=".2" stop-color="#0a0a15" stop-opacity="0"/>
      <stop offset=".3" stop-color="#0a0a15" stop-opacity=".2"/>
      <stop offset="1" stop-color="#0a0a15" stop-opacity=".8"/>
    </radialGradient>
  </defs>
  <g id="BACKGROUND">
    <g>
      <rect class="st15" width="1500" height="500"/>
      <rect class="st13" width="1500" height="500"/>
    </g>
  </g>
  <g id="OBJECTS">
    <g>
      <g>
        <circle class="st11" cx="442.9" cy="179.8" r="42" transform="translate(193.6 587.6) rotate(-80.7)"/>
        <path class="st11" d="M441.8,178.7c-9.5,9.5-21.8,12.5-27.6,6.8-5.7-5.7-2.7-18.1,6.8-27.6,9.5-9.5,21.8-12.5,27.6-6.8s2.7,18.1-6.8,27.6Z"/>
        <path class="st11" d="M472.3,179.8c0,16.3-13.2,29.4-29.4,29.4"/>
        <path class="st11" d="M429.1,233.6v84.6c0,3.3,6.2,6,13.8,6s13.8-2.7,13.8-6v-84.6"/>
        <path class="st9" d="M420.6,306.4l-37.6,13.3c-6.9,2.5-6.9,6.4,0,8.9l47.4,16.8c6.9,2.5,18.1,2.5,25.1,0l47.4-16.8c6.9-2.5,6.9-6.4,0-8.9l-36.7-13"/>
        <path class="st9" d="M368.2,335.9l-31,11c-12.2,4.3-12.2,11.3,0,15.7l83.7,29.7c12.2,4.3,32,4.3,44.2,0l83.7-29.7c12.2-4.3,12.2-11.3,0-15.7l-31.6-11.2"/>
        <path class="st9" d="M328,372v15.2c0,2.8,3.1,5.7,9.2,7.8l83.7,29.7c12.2,4.3,32,4.3,44.2,0l83.7-29.7c6.1-2.2,9.2-5,9.2-7.8v-15.2"/>
        <path class="st9" d="M377.7,336.4v8.7c0,1.6,1.7,3.2,5.2,4.4l47.4,16.8c6.9,2.5,18.1,2.5,25.1,0l47.4-16.8c3.5-1.2,5.2-2.8,5.2-4.4h0v-8.7"/>
      </g>
      <g>
        <path class="st3" d="M292.9,303.2v-133.1c0-14.7,11.9-26.6,26.6-26.6h81.4"/>
        <path class="st3" d="M484.9,143.5h81.4c14.7,0,26.6,11.9,26.6,26.6v136.2"/>
        <path class="st3" d="M316,372h-48.3c-6.2,0-11.3-5-11.3-11.3h0c0-6.2,5-11.3,11.3-11.3h38c4.6,0,8.4-3.8,8.4-8.4h0c0-4.6-3.8-8.4-8.4-8.4h-5.8c-4.5,0-8.2-3.7-8.2-8.2h0c0-4.5,3.7-8.2,8.2-8.2h64"/>
        <path class="st3" d="M569.7,372h48.3c6.2,0,11.3-5,11.3-11.3h0c0-6.2-5-11.3-11.3-11.3h-38c-4.6,0-8.4-3.8-8.4-8.4h0c0-4.6,3.8-8.4,8.4-8.4h5.8c4.5,0,8.2-3.7,8.2-8.2h0c0-4.5-3.7-8.2-8.2-8.2h-64"/>
        <g>
          <path class="st12" d="M319.2,269.2c.8-7.7,5.8-14.6,13.5-17.6,7.4-2.9,15.5-1.4,21.3,3.3"/>
          <path class="st12" d="M326.5,287.7c5.8,5.1,14.2,6.8,21.9,3.8,7.4-2.9,12.3-9.5,13.4-16.9"/>
          <line class="st12" x1="314.9" y1="281.6" x2="366.1" y2="261.6"/>
        </g>
        <g>
          <path class="st11" d="M534.7,239.7c-1.9,6.4-8.7,10.1-15.1,8.2-6.4-1.9-10.1-8.7-8.2-15.1,1.9-6.4,8.7-10.1,15.1-8.2,6.4,1.9,10.1,8.7,8.2,15.1Z"/>
          <path class="st10" d="M534.7,239.7c-1.9,6.4-8.7,10.1-15.1,8.2-6.4-1.9-10.1-8.7-8.2-15.1,1.9-6.4,8.7-10.1,15.1-8.2,6.4,1.9,10.1,8.7,8.2,15.1Z"/>
          <path class="st5" d="M519.6,290.4c-1.9,6.4-8.7,10.1-15.1,8.2-6.4-1.9-10.1-8.7-8.2-15.1,1.9-6.4,8.7-10.1,15.1-8.2,6.4,1.9,10.1,8.7,8.2,15.1Z"/>
          <path class="st11" d="M537.4,280.8c-6.4-1.9-10.1-8.7-8.2-15.1,1.9-6.4,8.7-10.1,15.1-8.2,6.4,1.9,10.1,8.7,8.2,15.1-1.9,6.4-8.7,10.1-15.1,8.2Z"/>
          <path class="st12" d="M537.4,280.8c-6.4-1.9-10.1-8.7-8.2-15.1,1.9-6.4,8.7-10.1,15.1-8.2,6.4,1.9,10.1,8.7,8.2,15.1-1.9,6.4-8.7,10.1-15.1,8.2Z"/>
          <path class="st6" d="M486.7,265.7c-6.4-1.9-10.1-8.7-8.2-15.1,1.9-6.4,8.7-10.1,15.1-8.2,6.4,1.9,10.1,8.7,8.2,15.1-1.9,6.4-8.7,10.1-15.1,8.2Z"/>
        </g>
        <g>
          <path class="st5" d="M575.5,209.7c-3.1,3.1-8,3.1-11.1,0-3.1-3.1-3.1-8,0-11.1s8-3.1,11.1,0c3.1,3.1,3.1,8,0,11.1Z"/>
          <line class="st5" x1="575.5" y1="198.6" x2="548.7" y2="171.8"/>
          <line class="st5" x1="564.4" y1="198.6" x2="553.1" y2="187.3"/>
          <line class="st5" x1="564.4" y1="209.7" x2="542.4" y2="187.7"/>
        </g>
        <path class="st6" d="M377.9,182.1l-3,.5c-2.5.4-4.8-1.2-5.2-3.7l-.5-3c-.4-2.5-2.8-4.1-5.2-3.7l-4.5.8c-2.5.4-4.1,2.8-3.7,5.2l.5,3c.4,2.5-1.2,4.8-3.7,5.2l-3,.5c-2.5.4-4.1,2.8-3.7,5.2l.8,4.5c.4,2.5,2.8,4.1,5.2,3.7l3-.5c2.5-.4,4.8,1.2,5.2,3.7l.5,3c.4,2.5,2.8,4.1,5.2,3.7l4.5-.8c2.5-.4,4.1-2.8,3.7-5.2l-.5-3c-.4-2.5,1.2-4.8,3.7-5.2l3-.5c2.5-.4,4.1-2.8,3.7-5.2l-.8-4.5c-.4-2.5-2.8-4.1-5.2-3.7Z"/>
        <path class="st8" d="M328.7,220c0,3.7-3,6.8-6.8,6.8s-6.8-3-6.8-6.8,3-6.8,6.8-6.8,6.8,3,6.8,6.8Z"/>
        <path class="st5" d="M338.9,171.9c0,2.8-2.3,5.1-5.1,5.1s-5.1-2.3-5.1-5.1,2.3-5.1,5.1-5.1,5.1,2.3,5.1,5.1Z"/>
        <g>
          <line class="st7" x1="403.6" y1="239.1" x2="409.1" y2="233.3"/>
          <line class="st7" x1="403.7" y1="248.3" x2="409.5" y2="253.9"/>
          <line class="st7" x1="389" y1="254.3" x2="394.5" y2="248.5"/>
          <line class="st7" x1="394.3" y1="239.3" x2="388.6" y2="233.8"/>
        </g>
        <g>
          <line class="st7" x1="521.9" y1="182" x2="529.4" y2="184.8"/>
          <line class="st7" x1="513.5" y1="185.9" x2="510.7" y2="193.4"/>
          <line class="st7" x1="502.2" y1="174.7" x2="509.7" y2="177.5"/>
          <line class="st7" x1="518" y1="173.6" x2="520.8" y2="166.2"/>
        </g>
        <line class="st10" x1="209.1" y1="422.4" x2="381.2" y2="422.4"/>
        <line class="st10" x1="221.4" y1="406.5" x2="328.7" y2="406.5"/>
        <line class="st10" x1="237.2" y1="390.7" x2="312.5" y2="390.7"/>
        <line class="st10" x1="676.7" y1="422.4" x2="504.5" y2="422.4"/>
        <line class="st10" x1="664.4" y1="406.5" x2="557.1" y2="406.5"/>
        <line class="st10" x1="648.6" y1="390.7" x2="573.2" y2="390.7"/>
        <polyline class="st5" points="222.3 130.3 246.8 152 233.1 158.3 262.3 183.4 202.5 157.2 218.5 149.7 180.6 129.8 207.6 117.3 213.3 122.3"/>
        <polyline class="st5" points="197.4 320.5 226.6 306 227.3 321 261.6 303.4 214.8 349 214 331.3 181.2 359 179.8 329.3 186.6 325.9"/>
        <polyline class="st5" points="663.5 130.3 639 152 652.7 158.3 623.5 183.4 683.3 157.2 667.2 149.7 705.2 129.8 678.2 117.3 672.5 122.3"/>
        <polyline class="st5" points="688.4 320.5 659.2 306 658.4 321 624.2 303.4 671 349 671.8 331.3 704.5 359 705.9 329.3 699.2 325.9"/>
        <path class="st7" d="M308.9,133.1c35.2-29.7,82.3-48,134-48s98,17.9,133.1,47.2"/>
        <path class="st7" d="M595.7,132.4c-38.3-37.1-92.6-60.3-152.8-60.3s-114.5,23.2-152.8,60.3"/>
        <path class="st7" d="M246.7,203.9c-9,24.4-12.8,50.7-10.3,77.8,0,.7.1,1.4.2,2.1"/>
        <path class="st7" d="M248.9,274.9c-1.2-20.9,1.6-41.3,7.9-60.5"/>
        <path class="st7" d="M639.1,203.9c9,24.4,12.8,50.7,10.3,77.8,0,.7-.1,1.4-.2,2.1"/>
        <path class="st7" d="M636.8,274.9c1.2-20.9-1.6-41.3-7.9-60.5"/>
      </g>
    </g>
    <g>
      <line class="st10" x1="1353.5" y1="181.4" x2="1344.8" y2="183.8"/>
      <line class="st10" x1="1395.4" y1="170.1" x2="1367.9" y2="177.6"/>
      <line class="st10" x1="1346" y1="118.6" x2="1316.7" y2="142.6"/>
      <line class="st10" x1="1367.1" y1="101.4" x2="1357.7" y2="109.1"/>
      <line class="st10" x1="1291" y1="87.1" x2="1282.4" y2="108.4"/>
      <line class="st10" x1="1301" y1="62.8" x2="1297.3" y2="71.8"/>
    </g>
    <circle class="st11" cx="97.7" cy="203" r="13.3" transform="translate(-114.9 128.5) rotate(-45)"/>
    <polygon class="st10" points="124.3 46.5 128.6 55.1 138.1 56.5 131.2 63.2 132.8 72.7 124.3 68.2 115.8 72.7 117.4 63.2 110.6 56.5 120.1 55.1 124.3 46.5"/>
    <circle class="st12" cx="62.7" cy="148.6" r="5"/>
    <rect class="st6" x="241.2" y="54.3" width="22" height="22"/>
    <g>
      <line class="st10" x1="121.3" y1="377.6" x2="129.2" y2="368.1"/>
      <line class="st10" x1="122.5" y1="391.7" x2="132" y2="399.6"/>
      <line class="st10" x1="100.5" y1="402.4" x2="108.4" y2="393"/>
      <line class="st10" x1="107.1" y1="378.8" x2="97.7" y2="370.9"/>
    </g>
    <g>
      <line class="st7" x1="816.8" y1="85.1" x2="822.2" y2="78.6"/>
      <line class="st7" x1="817.6" y1="94.9" x2="824.1" y2="100.3"/>
      <line class="st7" x1="802.5" y1="102.2" x2="807.9" y2="95.7"/>
      <line class="st7" x1="807" y1="86" x2="800.5" y2="80.6"/>
    </g>
    <circle class="st10" cx="627.1" cy="69.7" r="10.1"/>
    <rect class="st6" x="729" y="173.9" width="22.4" height="22.4"/>
    <polygon class="st11" points="785.2 394.4 789.2 402.4 798 403.7 791.6 409.9 793.1 418.7 785.2 414.5 777.3 418.7 778.8 409.9 772.5 403.7 781.3 402.4 785.2 394.4"/>
    <polygon class="st12" points="1389.1 356.5 1395.6 369.8 1410.4 371.9 1399.7 382.3 1402.2 397 1389.1 390.1 1375.9 397 1378.4 382.3 1367.7 371.9 1382.5 369.8 1389.1 356.5"/>
    <circle class="st11" cx="1427" cy="321.7" r="12"/>
    <path class="st10" d="M1334,416.5c0,3.4-2.8,6.2-6.2,6.2s-6.2-2.8-6.2-6.2,2.8-6.2,6.2-6.2,6.2,2.8,6.2,6.2Z"/>
  </g>
  <g id="TEXTS">
    <text class="st1" transform="translate(883.3 222.8)"><tspan x="0" y="0">Conquer</tspan></text>
    <text class="st0" transform="translate(816.9 287.1)"><tspan x="0" y="0">your rivals</tspan></text>
    <g>
      <path class="st16" d="M862.7,332.9v-16.7h-6.4v-.5h13.3v.5h-6.4v16.7h-.5Z"/>
      <path class="st16" d="M872.4,332.9v-18.2h.5v9.1h0c.4-1.2,1-2.1,1.9-2.7s2.1-1,3.4-1,1.9.2,2.7.6c.8.4,1.3,1,1.8,1.8.4.8.6,1.8.6,2.9v7.5h-.5v-7.5c0-1.6-.4-2.8-1.2-3.6-.8-.8-1.9-1.2-3.4-1.2s-2.1.2-2.9.7c-.8.5-1.4,1.1-1.8,1.9-.4.8-.6,1.8-.6,2.8v6.9h-.5Z"/>
      <path class="st16" d="M893.7,332.9c-1.2,0-2.3-.3-3.3-.8-1-.5-1.7-1.3-2.2-2.3-.5-1-.8-2.1-.8-3.3s.3-2.4.8-3.3,1.2-1.7,2.1-2.3c.9-.5,1.9-.8,3-.8s2.1.3,3,.8c.9.5,1.6,1.3,2.1,2.2s.8,2,.8,3.3h0c0,.1-11.5.1-11.5.1v-.5h11.2l-.2.4c0-1.1-.2-2.1-.7-3-.5-.9-1.1-1.6-1.9-2.1-.8-.5-1.7-.8-2.8-.8s-2,.3-2.8.8c-.8.5-1.5,1.2-1.9,2.1s-.7,1.9-.7,3h0c0,1.3.3,2.3.8,3.2.5.9,1.2,1.6,2.1,2.1.9.5,1.9.8,3,.8s1.7-.2,2.4-.5c.8-.3,1.4-.8,1.9-1.5l.3.3c-.6.7-1.2,1.2-2.1,1.6s-1.7.5-2.6.5Z"/>
      <path class="st16" d="M909.4,332.9v-12.7h.5v3.6h0c.4-1.2,1-2.1,1.9-2.7s2.1-1,3.4-1,1.9.2,2.7.6c.8.4,1.3,1,1.8,1.8.4.8.6,1.8.6,2.9v7.5h-.5v-7.5c0-1.6-.4-2.8-1.2-3.6-.8-.8-1.9-1.2-3.4-1.2s-2.1.2-2.9.7c-.8.5-1.4,1.1-1.8,1.9-.4.8-.6,1.8-.6,2.8v6.9h-.5Z"/>
      <path class="st16" d="M930.6,332.9c-1.2,0-2.3-.3-3.3-.8-1-.5-1.7-1.3-2.2-2.3-.5-1-.8-2.1-.8-3.3s.3-2.4.8-3.3,1.2-1.7,2.1-2.3c.9-.5,1.9-.8,3-.8s2.1.3,3,.8c.9.5,1.6,1.3,2.1,2.2s.8,2,.8,3.3h0c0,.1-11.5.1-11.5.1v-.5h11.2l-.2.4c0-1.1-.2-2.1-.7-3-.5-.9-1.1-1.6-1.9-2.1-.8-.5-1.7-.8-2.8-.8s-2,.3-2.8.8c-.8.5-1.5,1.2-1.9,2.1s-.7,1.9-.7,3h0c0,1.3.3,2.3.8,3.2.5.9,1.2,1.6,2.1,2.1.9.5,1.9.8,3,.8s1.7-.2,2.4-.5c.8-.3,1.4-.8,1.9-1.5l.3.3c-.6.7-1.2,1.2-2.1,1.6s-1.7.5-2.6.5Z"/>
      <path class="st16" d="M937.7,332.9l5.2-6.7v.2s-4.9-6.2-4.9-6.2h.6l4.6,5.9h-.2l4.6-5.9h.6l-4.9,6.3v-.3s5.3,6.7,5.3,6.7h-.6l-4.9-6.3h.1l-4.9,6.3h-.6Z"/>
      <path class="st16" d="M949.8,320.6v-.5h7.2v.5h-7.2ZM955.3,332.9c-1,0-1.8-.3-2.3-.9-.5-.6-.8-1.3-.8-2.3v-12.4h.5v12.3c0,.9.2,1.6.7,2.1.4.5,1.1.7,1.9.7s1.6-.3,2.1-.8l.3.3c-.3.3-.7.5-1.1.7s-.9.2-1.4.2Z"/>
      <path class="st16" d="M972.5,332.4c-1.2,0-2.2-.3-3.2-.8-.9-.5-1.7-1.3-2.2-2.2-.5-.9-.8-2-.8-3.2s.3-2.3.8-3.2c.5-.9,1.3-1.6,2.2-2.2.9-.5,2-.8,3.2-.8s2.3.3,3.2.8c.9.5,1.7,1.2,2.2,2.2.5.9.8,2,.8,3.2s-.3,2.3-.8,3.2c-.5.9-1.3,1.7-2.2,2.2-.9.5-2,.8-3.2.8ZM972.5,332c1.1,0,2.1-.2,3-.7.9-.5,1.5-1.2,2-2,.5-.9.7-1.9.7-3s-.2-2.1-.7-3c-.5-.9-1.2-1.5-2-2-.9-.5-1.8-.7-3-.7s-2.1.2-2.9.7c-.9.5-1.6,1.2-2.1,2-.5.9-.7,1.8-.7,3s.2,2.1.7,3c.5.9,1.2,1.5,2.1,2,.9.5,1.8.7,2.9.7ZM972.9,337.7c-1.1,0-2.2-.2-3.2-.6-1-.4-1.8-.9-2.4-1.5l.3-.3c.7.6,1.4,1.1,2.3,1.5.9.3,1.9.5,2.9.5,1.8,0,3.2-.4,4.1-1.3.9-.9,1.3-2.2,1.3-4.1v-4.1l.2-1.5-.2-1.5v-4.6h.5v11.6c0,2-.5,3.6-1.5,4.5-1,1-2.4,1.4-4.4,1.4Z"/>
      <path class="st16" d="M989.2,332.9c-1.2,0-2.3-.3-3.3-.8-1-.5-1.7-1.3-2.2-2.3-.5-1-.8-2.1-.8-3.3s.3-2.4.8-3.3,1.2-1.7,2.1-2.3c.9-.5,1.9-.8,3-.8s2.1.3,3,.8c.9.5,1.6,1.3,2.1,2.2s.8,2,.8,3.3h0c0,.1-11.5.1-11.5.1v-.5h11.2l-.2.4c0-1.1-.2-2.1-.7-3-.5-.9-1.1-1.6-1.9-2.1-.8-.5-1.7-.8-2.8-.8s-2,.3-2.8.8c-.8.5-1.5,1.2-1.9,2.1s-.7,1.9-.7,3h0c0,1.3.3,2.3.8,3.2.5.9,1.2,1.6,2.1,2.1.9.5,1.9.8,3,.8s1.7-.2,2.4-.5c.8-.3,1.4-.8,1.9-1.5l.3.3c-.6.7-1.2,1.2-2.1,1.6s-1.7.5-2.6.5Z"/>
      <path class="st16" d="M998.8,332.9v-12.7h.5v3.6h0c.4-1.2,1-2.1,1.9-2.7s2.1-1,3.4-1,1.9.2,2.7.6c.8.4,1.3,1,1.8,1.8.4.8.6,1.8.6,2.9v7.5h-.5v-7.5c0-1.6-.4-2.8-1.2-3.6-.8-.8-1.9-1.2-3.4-1.2s-2.1.2-2.9.7c-.8.5-1.4,1.1-1.8,1.9-.4.8-.6,1.8-.6,2.8v6.9h-.5Z"/>
      <path class="st16" d="M1020,332.9c-1.2,0-2.3-.3-3.3-.8-1-.5-1.7-1.3-2.2-2.3-.5-1-.8-2.1-.8-3.3s.3-2.4.8-3.3,1.2-1.7,2.1-2.3c.9-.5,1.9-.8,3-.8s2.1.3,3,.8c.9.5,1.6,1.3,2.1,2.2s.8,2,.8,3.3h0c0,.1-11.5.1-11.5.1v-.5h11.2l-.2.4c0-1.1-.2-2.1-.7-3-.5-.9-1.1-1.6-1.9-2.1-.8-.5-1.7-.8-2.8-.8s-2,.3-2.8.8c-.8.5-1.5,1.2-1.9,2.1s-.7,1.9-.7,3h0c0,1.3.3,2.3.8,3.2.5.9,1.2,1.6,2.1,2.1.9.5,1.9.8,3,.8s1.7-.2,2.4-.5c.8-.3,1.4-.8,1.9-1.5l.3.3c-.6.7-1.2,1.2-2.1,1.6s-1.7.5-2.6.5Z"/>
      <path class="st16" d="M1029.6,332.9v-12.7h.5v3.5h0c.3-1.2.9-2,1.8-2.7.9-.6,1.9-.9,3.2-.9v.5h-.1c-1.5,0-2.7.5-3.6,1.5-.9,1-1.3,2.3-1.3,4v6.8h-.5Z"/>
      <path class="st16" d="M1041.4,332.9c-1,0-1.8-.1-2.4-.4s-1.2-.7-1.5-1.3c-.4-.5-.5-1.2-.5-1.9s.1-1.2.4-1.7.8-.9,1.4-1.3c.7-.3,1.5-.5,2.7-.5h5.1v.5h-5.1c-1.4,0-2.5.3-3.1.8s-.9,1.2-.9,2.1.4,1.7,1.1,2.3c.7.6,1.7.8,2.9.8s2.2-.3,3-.8c.8-.6,1.4-1.4,1.8-2.4l.2.3c-.3,1-.9,1.8-1.8,2.5s-2,.9-3.3.9ZM1046.2,332.9v-8.3c0-1.3-.3-2.3-1-3-.7-.7-1.7-1-3-1s-1.8.2-2.6.5c-.8.3-1.5.8-2,1.3l-.3-.3c.6-.6,1.3-1,2.2-1.4s1.8-.5,2.7-.5c1.5,0,2.6.4,3.4,1.1s1.2,1.9,1.2,3.3v8.3h-.5Z"/>
      <path class="st16" d="M1050,320.6v-.5h7.2v.5h-7.2ZM1055.5,332.9c-1,0-1.8-.3-2.3-.9-.5-.6-.8-1.3-.8-2.3v-12.4h.5v12.3c0,.9.2,1.6.7,2.1.4.5,1.1.7,1.9.7s1.6-.3,2.1-.8l.3.3c-.3.3-.7.5-1.1.7s-.9.2-1.4.2Z"/>
      <path class="st16" d="M1062,316.6c-.2,0-.3,0-.4-.2-.1-.1-.2-.3-.2-.4s0-.3.2-.5c.1-.1.3-.2.4-.2s.3,0,.5.2c.1.1.2.3.2.5s0,.3-.2.4c-.1.1-.3.2-.5.2ZM1061.8,332.9v-12.7h.5v12.7h-.5Z"/>
      <path class="st16" d="M1072.6,332.9c-1.2,0-2.2-.3-3.2-.8-.9-.5-1.7-1.3-2.2-2.3-.5-1-.8-2.1-.8-3.3s.3-2.4.8-3.3c.5-1,1.3-1.7,2.2-2.3s2-.8,3.2-.8,2.2.3,3.2.8c.9.5,1.7,1.3,2.2,2.3.5,1,.8,2.1.8,3.3s-.3,2.4-.8,3.3c-.5,1-1.3,1.7-2.2,2.3-.9.5-2,.8-3.2.8ZM1072.6,332.5c1.1,0,2-.3,2.9-.8.9-.5,1.5-1.2,2-2.1.5-.9.7-1.9.7-3.1s-.2-2.2-.7-3.1c-.5-.9-1.2-1.6-2-2.1-.9-.5-1.8-.7-2.9-.7s-2,.2-2.9.7c-.9.5-1.5,1.2-2,2.1-.5.9-.7,1.9-.7,3.1s.2,2.2.7,3.1c.5.9,1.2,1.6,2,2.1.9.5,1.8.8,2.9.8Z"/>
      <path class="st16" d="M1082.9,332.9v-12.7h.5v3.6h0c.4-1.2,1-2.1,1.9-2.7s2.1-1,3.4-1,1.9.2,2.7.6c.8.4,1.3,1,1.8,1.8.4.8.6,1.8.6,2.9v7.5h-.5v-7.5c0-1.6-.4-2.8-1.2-3.6-.8-.8-1.9-1.2-3.4-1.2s-2.1.2-2.9.7c-.8.5-1.4,1.1-1.8,1.9-.4.8-.6,1.8-.6,2.8v6.9h-.5Z"/>
      <path class="st16" d="M1110.1,332.9c-1.2,0-2.2-.3-3.2-.8-.9-.5-1.7-1.3-2.2-2.3-.5-1-.8-2.1-.8-3.3s.3-2.4.8-3.3c.5-1,1.3-1.7,2.2-2.3s2-.8,3.2-.8,2.2.3,3.2.8c.9.5,1.7,1.3,2.2,2.3.5,1,.8,2.1.8,3.3s-.3,2.4-.8,3.3c-.5,1-1.3,1.7-2.2,2.3-.9.5-2,.8-3.2.8ZM1110.1,332.5c1.1,0,2-.3,2.9-.8.9-.5,1.5-1.2,2-2.1.5-.9.7-1.9.7-3.1s-.2-2.2-.7-3.1c-.5-.9-1.2-1.6-2-2.1-.9-.5-1.8-.7-2.9-.7s-2,.2-2.9.7c-.9.5-1.5,1.2-2,2.1-.5.9-.7,1.9-.7,3.1s.2,2.2.7,3.1c.5.9,1.2,1.6,2,2.1.9.5,1.8.8,2.9.8Z"/>
      <path class="st16" d="M1118.1,320.6v-.5h7.2v.5h-7.2ZM1120.6,332.9v-15.2c0-.9.3-1.7.8-2.3.5-.6,1.3-.9,2.3-.9s.9,0,1.4.2c.5.1.8.4,1.1.7l-.3.3c-.3-.3-.6-.5-.9-.6s-.8-.2-1.2-.2c-.9,0-1.5.2-1.9.7-.4.5-.7,1.2-.7,2.1v15.1h-.5Z"/>
      <path class="st16" d="M1138.9,332.4c-1.2,0-2.2-.3-3.2-.8-.9-.5-1.7-1.3-2.2-2.2-.5-.9-.8-2-.8-3.2s.3-2.3.8-3.2c.5-.9,1.3-1.6,2.2-2.2.9-.5,2-.8,3.2-.8s2.3.3,3.2.8c.9.5,1.7,1.2,2.2,2.2.5.9.8,2,.8,3.2s-.3,2.3-.8,3.2c-.5.9-1.3,1.7-2.2,2.2-.9.5-2,.8-3.2.8ZM1138.9,332c1.1,0,2.1-.2,3-.7.9-.5,1.5-1.2,2-2,.5-.9.7-1.9.7-3s-.2-2.1-.7-3c-.5-.9-1.2-1.5-2-2-.9-.5-1.8-.7-3-.7s-2.1.2-2.9.7c-.9.5-1.6,1.2-2.1,2-.5.9-.7,1.8-.7,3s.2,2.1.7,3c.5.9,1.2,1.5,2.1,2,.9.5,1.8.7,2.9.7ZM1139.3,337.7c-1.1,0-2.2-.2-3.2-.6-1-.4-1.8-.9-2.4-1.5l.3-.3c.7.6,1.4,1.1,2.3,1.5.9.3,1.9.5,2.9.5,1.8,0,3.2-.4,4.1-1.3.9-.9,1.3-2.2,1.3-4.1v-4.1l.2-1.5-.2-1.5v-4.6h.5v11.6c0,2-.5,3.6-1.5,4.5-1,1-2.4,1.4-4.4,1.4Z"/>
      <path class="st16" d="M1154.1,332.9c-1,0-1.8-.1-2.4-.4s-1.2-.7-1.5-1.3c-.4-.5-.5-1.2-.5-1.9s.1-1.2.4-1.7.8-.9,1.4-1.3c.7-.3,1.5-.5,2.7-.5h5.1v.5h-5.1c-1.4,0-2.5.3-3.1.8s-.9,1.2-.9,2.1.4,1.7,1.1,2.3c.7.6,1.7.8,2.9.8s2.2-.3,3-.8c.8-.6,1.4-1.4,1.8-2.4l.2.3c-.3,1-.9,1.8-1.8,2.5s-2,.9-3.3.9ZM1158.9,332.9v-8.3c0-1.3-.3-2.3-1-3-.7-.7-1.7-1-3-1s-1.8.2-2.6.5c-.8.3-1.5.8-2,1.3l-.3-.3c.6-.6,1.3-1,2.2-1.4s1.8-.5,2.7-.5c1.5,0,2.6.4,3.4,1.1s1.2,1.9,1.2,3.3v8.3h-.5Z"/>
      <path class="st16" d="M1164.9,332.9v-12.7h.5v3.6h0c.4-1.2,1-2,1.9-2.7s2-1,3.3-1,2.4.3,3.2,1c.9.7,1.4,1.6,1.6,3h0c.3-1.2.9-2.1,1.9-2.9.9-.7,2.1-1.1,3.5-1.1s1.9.2,2.6.6c.7.4,1.3,1,1.7,1.8.4.8.6,1.8.6,2.9v7.5h-.5v-7.5c0-1.6-.4-2.8-1.2-3.6-.8-.8-1.9-1.2-3.3-1.2s-2,.2-2.8.7-1.4,1.1-1.8,1.9c-.4.8-.6,1.8-.6,2.8v6.9h-.5v-7.5c0-1.6-.4-2.8-1.2-3.6-.8-.8-1.9-1.2-3.3-1.2s-2,.2-2.8.7-1.4,1.1-1.8,1.9c-.4.8-.6,1.8-.6,2.8v6.9h-.5Z"/>
      <path class="st16" d="M1191.4,316.6c-.2,0-.3,0-.4-.2-.1-.1-.2-.3-.2-.4s0-.3.2-.5c.1-.1.3-.2.4-.2s.3,0,.5.2c.1.1.2.3.2.5s0,.3-.2.4c-.1.1-.3.2-.5.2ZM1191.1,332.9v-12.7h.5v12.7h-.5Z"/>
      <path class="st16" d="M1197.2,332.9v-12.7h.5v3.6h0c.4-1.2,1-2.1,1.9-2.7s2.1-1,3.4-1,1.9.2,2.7.6c.8.4,1.3,1,1.8,1.8.4.8.6,1.8.6,2.9v7.5h-.5v-7.5c0-1.6-.4-2.8-1.2-3.6-.8-.8-1.9-1.2-3.4-1.2s-2.1.2-2.9.7c-.8.5-1.4,1.1-1.8,1.9-.4.8-.6,1.8-.6,2.8v6.9h-.5Z"/>
      <path class="st16" d="M1218.4,332.4c-1.2,0-2.2-.3-3.2-.8-.9-.5-1.7-1.3-2.2-2.2-.5-.9-.8-2-.8-3.2s.3-2.3.8-3.2c.5-.9,1.3-1.6,2.2-2.2.9-.5,2-.8,3.2-.8s2.3.3,3.2.8c.9.5,1.7,1.2,2.2,2.2.5.9.8,2,.8,3.2s-.3,2.3-.8,3.2c-.5.9-1.3,1.7-2.2,2.2-.9.5-2,.8-3.2.8ZM1218.4,332c1.1,0,2.1-.2,3-.7.9-.5,1.5-1.2,2-2,.5-.9.7-1.9.7-3s-.2-2.1-.7-3c-.5-.9-1.2-1.5-2-2-.9-.5-1.8-.7-3-.7s-2.1.2-2.9.7c-.9.5-1.6,1.2-2.1,2-.5.9-.7,1.8-.7,3s.2,2.1.7,3c.5.9,1.2,1.5,2.1,2,.9.5,1.8.7,2.9.7ZM1218.8,337.7c-1.1,0-2.2-.2-3.2-.6-1-.4-1.8-.9-2.4-1.5l.3-.3c.7.6,1.4,1.1,2.3,1.5.9.3,1.9.5,2.9.5,1.8,0,3.2-.4,4.1-1.3.9-.9,1.3-2.2,1.3-4.1v-4.1l.2-1.5-.2-1.5v-4.6h.5v11.6c0,2-.5,3.6-1.5,4.5-1,1-2.4,1.4-4.4,1.4Z"/>
      <path class="st16" d="M1236.7,316.6c-.2,0-.3,0-.4-.2-.1-.1-.2-.3-.2-.4s0-.3.2-.5c.1-.1.3-.2.4-.2s.3,0,.5.2c.1.1.2.3.2.5s0,.3-.2.4c-.1.1-.3.2-.5.2ZM1236.4,332.9v-12.7h.5v12.7h-.5Z"/>
      <path class="st16" d="M1245.5,332.9c-1,0-2-.2-2.9-.5-.9-.3-1.6-.7-2.1-1.3l.3-.4c.5.4,1.1.8,1.9,1.2.8.3,1.7.5,2.8.5,1.5,0,2.6-.3,3.2-.8.7-.5,1-1.2,1-2s-.2-1.1-.5-1.4c-.3-.4-.7-.6-1.2-.8s-1.1-.3-1.7-.5c-.6-.1-1.2-.2-1.9-.4-.6-.1-1.2-.3-1.7-.6s-.9-.6-1.2-1c-.3-.4-.5-1-.5-1.7s.2-1.1.5-1.6.8-.9,1.5-1.2c.7-.3,1.5-.5,2.6-.5s1.6.1,2.3.4,1.4.6,1.9.9l-.3.4c-.5-.4-1.1-.7-1.8-.9-.7-.2-1.4-.3-2.1-.3-1.4,0-2.4.3-3,.8-.6.5-.9,1.2-.9,2s.2,1.1.5,1.5.7.7,1.2.8,1.1.4,1.7.5,1.2.2,1.9.4c.6.1,1.2.3,1.7.5.5.2.9.5,1.2.9.3.4.5.9.5,1.6s-.2,1.2-.5,1.7-.9.9-1.6,1.2c-.7.3-1.6.4-2.6.4Z"/>
      <path class="st16" d="M1260.1,332.9v-18.2h.5v9.1h0c.4-1.2,1-2.1,1.9-2.7s2.1-1,3.4-1,1.9.2,2.7.6c.8.4,1.3,1,1.8,1.8.4.8.6,1.8.6,2.9v7.5h-.5v-7.5c0-1.6-.4-2.8-1.2-3.6-.8-.8-1.9-1.2-3.4-1.2s-2.1.2-2.9.7c-.8.5-1.4,1.1-1.8,1.9-.4.8-.6,1.8-.6,2.8v6.9h-.5Z"/>
      <path class="st16" d="M1281.3,332.9c-1.2,0-2.3-.3-3.3-.8-1-.5-1.7-1.3-2.2-2.3-.5-1-.8-2.1-.8-3.3s.3-2.4.8-3.3,1.2-1.7,2.1-2.3c.9-.5,1.9-.8,3-.8s2.1.3,3,.8c.9.5,1.6,1.3,2.1,2.2s.8,2,.8,3.3h0c0,.1-11.5.1-11.5.1v-.5h11.2l-.2.4c0-1.1-.2-2.1-.7-3-.5-.9-1.1-1.6-1.9-2.1-.8-.5-1.7-.8-2.8-.8s-2,.3-2.8.8c-.8.5-1.5,1.2-1.9,2.1s-.7,1.9-.7,3h0c0,1.3.3,2.3.8,3.2.5.9,1.2,1.6,2.1,2.1.9.5,1.9.8,3,.8s1.7-.2,2.4-.5c.8-.3,1.4-.8,1.9-1.5l.3.3c-.6.7-1.2,1.2-2.1,1.6s-1.7.5-2.6.5Z"/>
      <path class="st16" d="M1290.9,332.9v-12.7h.5v3.5h0c.3-1.2.9-2,1.8-2.7.9-.6,1.9-.9,3.2-.9v.5h-.1c-1.5,0-2.7.5-3.6,1.5-.9,1-1.3,2.3-1.3,4v6.8h-.5Z"/>
      <path class="st16" d="M1304.7,332.9c-1.2,0-2.3-.3-3.3-.8-1-.5-1.7-1.3-2.2-2.3-.5-1-.8-2.1-.8-3.3s.3-2.4.8-3.3,1.2-1.7,2.1-2.3c.9-.5,1.9-.8,3-.8s2.1.3,3,.8c.9.5,1.6,1.3,2.1,2.2s.8,2,.8,3.3h0c0,.1-11.5.1-11.5.1v-.5h11.2l-.2.4c0-1.1-.2-2.1-.7-3-.5-.9-1.1-1.6-1.9-2.1-.8-.5-1.7-.8-2.8-.8s-2,.3-2.8.8c-.8.5-1.5,1.2-1.9,2.1s-.7,1.9-.7,3h0c0,1.3.3,2.3.8,3.2.5.9,1.2,1.6,2.1,2.1.9.5,1.9.8,3,.8s1.7-.2,2.4-.5c.8-.3,1.4-.8,1.9-1.5l.3.3c-.6.7-1.2,1.2-2.1,1.6s-1.7.5-2.6.5Z"/>
    </g>
    <g>
      <g>
        <g>
          <path class="st4" d="M1065.4,109.9c-2.9.5-5.6,1.9-7.7,4"/>
          <path class="st4" d="M1080.8,121.2c-.5-2.9-1.9-5.6-4-7.7"/>
          <path class="st4" d="M1054.1,125.4c.5,2.9,1.9,5.6,4,7.7"/>
          <path class="st4" d="M1069.5,136.7c2.9-.5,5.6-1.9,7.7-4"/>
        </g>
        <path class="st4" d="M1083.4,125.6l-7.5-2.4c-2.9-.9-4.5-4-3.6-6.8l2.4-7.5-4.9-1.6-2.4,7.5c-.9,2.9-4,4.5-6.8,3.6l-7.5-2.4-1.6,4.9,7.5,2.4c2.9.9,4.5,4,3.6,6.8l-2.4,7.5,4.9,1.6,2.4-7.5c.9-2.9,4-4.5,6.8-3.6l7.5,2.4,1.6-4.9Z"/>
      </g>
      <g>
        <path class="st14" d="M1037.2,134.7v-17.7h.5v17.2h10.5v.5h-11Z"/>
        <path class="st14" d="M1096.9,134.8c-1.3,0-2.5-.2-3.6-.7-1.1-.4-2.1-1.1-2.9-1.9-.8-.8-1.5-1.7-1.9-2.8-.5-1.1-.7-2.3-.7-3.5s.2-2.5.7-3.5c.5-1.1,1.1-2,1.9-2.8.8-.8,1.8-1.4,2.9-1.9s2.3-.7,3.6-.7,2.3.2,3.4.6c1.1.4,2,.9,2.7,1.7l-.3.4c-.8-.8-1.7-1.3-2.7-1.6-1-.3-2-.5-3.1-.5s-2.4.2-3.4.6c-1.1.4-2,1-2.8,1.8s-1.4,1.7-1.8,2.7c-.4,1-.6,2.1-.6,3.3s.2,2.3.6,3.3c.4,1,1,1.9,1.8,2.7.8.8,1.7,1.4,2.8,1.8s2.2.6,3.4.6,2.2-.2,3.1-.5c1-.3,1.9-.9,2.6-1.7l.3.4c-.8.8-1.7,1.3-2.7,1.7-1.1.4-2.2.6-3.4.6ZM1103,132.6h-.5v-6.5h.5v6.5Z"/>
        <path class="st14" d="M1116.4,134.8c-1.3,0-2.5-.2-3.6-.7-1.1-.4-2.1-1.1-2.9-1.9-.8-.8-1.5-1.7-1.9-2.8-.5-1.1-.7-2.3-.7-3.5s.2-2.5.7-3.5c.5-1.1,1.1-2,1.9-2.8.8-.8,1.8-1.4,2.9-1.9,1.1-.4,2.3-.7,3.6-.7s2.5.2,3.6.7c1.1.4,2.1,1.1,2.9,1.9.8.8,1.5,1.8,1.9,2.8.5,1.1.7,2.3.7,3.5s-.2,2.5-.7,3.5c-.5,1.1-1.1,2-1.9,2.8-.8.8-1.8,1.4-2.9,1.9-1.1.4-2.3.7-3.6.7ZM1116.4,134.3c1.2,0,2.3-.2,3.4-.6,1-.4,2-1,2.7-1.8.8-.8,1.4-1.7,1.8-2.7.4-1,.6-2.1.6-3.3s-.2-2.3-.6-3.3-1-1.9-1.8-2.7c-.8-.8-1.7-1.4-2.7-1.8-1-.4-2.2-.6-3.4-.6s-2.3.2-3.4.6c-1,.4-2,1-2.7,1.8-.8.8-1.4,1.7-1.8,2.7-.4,1-.6,2.1-.6,3.3s.2,2.3.6,3.3c.4,1,1,1.9,1.8,2.7.8.8,1.7,1.4,2.7,1.8,1,.4,2.2.6,3.4.6Z"/>
      </g>
    </g>
    <g>
      <g>
        <g>
          <path class="st14" d="M1084.1,358.8h0c-8.7,0-15.7,7-15.7,15.7h0c0,8.7,7,15.7,15.7,15.7h0c8.7,0,15.7-7,15.7-15.7h0c0-8.7-7-15.7-15.7-15.7ZM1096.1,380.5c-.3,1.1-1.1,1.9-2.2,2.2-2,.5-9.8.5-9.8.5,0,0-7.8,0-9.8-.5-1.1-.3-1.9-1.1-2.2-2.2-.5-2-.5-6.1-.5-6.1,0,0,0-4.1.5-6.1.3-1.1,1.1-1.9,2.2-2.2,2-.5,9.8-.5,9.8-.5,0,0,7.8,0,9.8.5,1.1.3,1.9,1.1,2.2,2.2.5,2,.5,6.1.5,6.1,0,0,0,4.1-.5,6.1Z"/>
          <polygon class="st14" points="1081.5 378.2 1088.1 374.5 1081.5 370.7 1081.5 378.2"/>
        </g>
        <path class="st14" d="M1039.7,358.8c-8.7,0-15.7,7-15.7,15.7h0c0,8.7,7,15.7,15.7,15.7s15.7-7,15.7-15.7h0c0-8.7-7-15.7-15.7-15.7ZM1046.3,371.1c.2,4.8-3.4,10.2-9.7,10.2s-3.7-.6-5.3-1.5c1.8.2,3.6-.3,5.1-1.4-1.5,0-2.8-1-3.2-2.4.5.1,1.1,0,1.5,0-1.6-.3-2.8-1.8-2.7-3.4.5.3,1,.4,1.6.4-1.5-1-2-3-1.1-4.6,1.7,2.1,4.2,3.4,7.1,3.6-.5-2.1,1.1-4.2,3.3-4.2s1.9.4,2.5,1.1c.8-.2,1.5-.4,2.2-.8-.3.8-.8,1.5-1.5,1.9.7,0,1.4-.3,2-.5-.5.7-1,1.3-1.7,1.8Z"/>
        <path class="st14" d="M952,358.8h0c-8.7,0-15.7,7-15.7,15.7h0c0,8.7,7,15.7,15.7,15.7h0c8.7,0,15.7-7,15.7-15.7h0c0-8.7-7-15.7-15.7-15.7ZM956.4,368.3h-2.1c-.7,0-.9.3-.9,1.1v1.8h2.9l-.3,3.2h-2.7v9.6h-3.8v-9.5h-2v-3.2h2v-2.6c0-2.4,1.3-3.6,4.1-3.6h2.6v3.3Z"/>
        <g>
          <path class="st14" d="M995.3,371.6c-1.6,0-2.9,1.3-2.9,2.9s1.3,2.9,2.9,2.9,2.9-1.3,2.9-2.9-1.3-2.9-2.9-2.9Z"/>
          <path class="st14" d="M995.3,358.8c-8.7,0-15.7,7-15.7,15.7h0c0,8.7,7,15.7,15.7,15.7s15.7-7,15.7-15.7h0c0-8.7-7-15.7-15.7-15.7ZM1003.8,378c0,.9-.2,1.5-.4,2.1-.2.6-.5,1-1,1.5-.5.5-1,.8-1.5,1-.5.2-1.2.4-2.1.4-.9,0-1.2,0-3.5,0s-2.6,0-3.5,0c-.9,0-1.5-.2-2.1-.4-.6-.2-1-.5-1.5-1-.5-.5-.8-1-1-1.5-.2-.5-.4-1.2-.4-2.1,0-.9,0-1.2,0-3.5s0-2.6,0-3.5c0-.9.2-1.5.4-2.1.2-.6.5-1,1-1.5.5-.5,1-.8,1.5-1,.5-.2,1.2-.4,2.1-.4.9,0,1.2,0,3.5,0s2.6,0,3.5,0c.9,0,1.5.2,2.1.4.6.2,1,.5,1.5,1,.5.5.8,1,1,1.5.2.5.4,1.2.4,2.1,0,.9,0,1.2,0,3.5s0,2.6,0,3.5Z"/>
          <path class="st14" d="M1002,369.4c-.2-.4-.3-.7-.6-1-.3-.3-.6-.5-1-.6-.3-.1-.8-.3-1.6-.3-.9,0-1.2,0-3.5,0s-2.6,0-3.5,0c-.8,0-1.3.2-1.6.3-.4.2-.7.3-1,.6-.3.3-.5.6-.6,1-.1.3-.3.8-.3,1.6,0,.9,0,1.2,0,3.5s0,2.6,0,3.5c0,.8.2,1.3.3,1.6.2.4.3.7.6,1,.3.3.6.5,1,.6.3.1.8.3,1.6.3.9,0,1.2,0,3.5,0s2.6,0,3.5,0c.8,0,1.3-.2,1.6-.3.4-.2.7-.3,1-.6.3-.3.5-.6.6-1,.1-.3.3-.8.3-1.6,0-.9,0-1.2,0-3.5s0-2.6,0-3.5c0-.8-.2-1.3-.3-1.6ZM995.3,378.9c-2.4,0-4.4-2-4.4-4.4s2-4.4,4.4-4.4,4.4,2,4.4,4.4-2,4.4-4.4,4.4ZM999.9,370.9c-.6,0-1-.5-1-1s.5-1,1-1,1,.5,1,1-.5,1-1,1Z"/>
        </g>
      </g>
      <g>
        <path class="st14" d="M1119.7,382.4c-1,0-2-.2-2.8-.5s-1.6-.8-2.2-1.4-1.1-1.4-1.5-2.2c-.3-.9-.5-1.8-.5-2.8s.2-2,.5-2.8c.3-.9.8-1.6,1.5-2.2s1.4-1.1,2.3-1.4c.9-.3,1.8-.5,2.8-.5s2,.2,2.8.5c.9.3,1.6.8,2.2,1.4.6.6,1.1,1.3,1.5,2.2.3.8.5,1.8.5,2.8s0,1.6-.3,2.2c-.2.6-.4,1.1-.8,1.4-.3.3-.7.5-1.1.5s-.8-.1-1-.4c-.3-.3-.4-.6-.4-1v-1.6l.2-1.1-.2-1.1v-2.9h.3v6.5c0,.5.1.8.3,1,.2.2.5.3.8.3s.7-.1.9-.4c.3-.3.5-.7.7-1.3.2-.6.2-1.2.2-2s-.2-1.9-.5-2.7c-.3-.8-.8-1.5-1.4-2.1-.6-.6-1.3-1-2.1-1.3-.8-.3-1.7-.5-2.7-.5s-1.9.2-2.7.5c-.8.3-1.5.8-2.2,1.4-.6.6-1.1,1.3-1.4,2.1s-.5,1.7-.5,2.7.2,1.9.5,2.7.8,1.5,1.4,2.1,1.3,1.1,2.1,1.4,1.7.5,2.7.5.9,0,1.5-.2c.5-.1,1-.3,1.4-.5v.3c-.3.2-.8.4-1.4.5-.6.1-1.1.2-1.5.2ZM1119.7,379.3c-.7,0-1.4-.2-2-.5-.6-.3-1.1-.8-1.4-1.4-.3-.6-.5-1.3-.5-2.1s.2-1.5.5-2.1c.3-.6.8-1.1,1.4-1.4.6-.3,1.2-.5,2-.5s1.4.2,2,.5c.6.3,1,.8,1.4,1.4.3.6.5,1.3.5,2.1s-.2,1.5-.5,2.1c-.3.6-.8,1.1-1.4,1.4-.6.3-1.2.5-2,.5ZM1119.7,379.1c.7,0,1.3-.2,1.8-.5s1-.8,1.3-1.3c.3-.6.5-1.2.5-2s-.2-1.4-.5-2-.7-1-1.3-1.3c-.5-.3-1.2-.5-1.8-.5s-1.3.2-1.8.5c-.5.3-1,.8-1.3,1.3-.3.6-.5,1.2-.5,2s.2,1.4.5,2c.3.6.7,1,1.3,1.3s1.1.5,1.8.5Z"/>
        <path class="st14" d="M1129,382.4c-.4,0-.7,0-1-.2-.3-.1-.5-.3-.8-.5l.2-.2c.2.2.4.4.7.5s.5.2.8.2.7-.1,1.1-.3.6-.6.9-1.2l.6-1.3h0c0-.1,3.5-7.9,3.5-7.9h.4l-4.3,9.3c-.2.4-.4.8-.6,1s-.5.4-.7.6c-.3.1-.6.2-.9.2ZM1131.6,379.5l-3.8-8.2h.4l3.5,7.8v.4Z"/>
        <path class="st14" d="M1140.1,379.3c-.7,0-1.4-.2-2-.5-.6-.3-1-.8-1.4-1.4-.3-.6-.5-1.3-.5-2.1s.2-1.5.5-2.1c.3-.6.8-1.1,1.4-1.4.6-.3,1.2-.5,2-.5s1.4.2,2,.5c.6.3,1.1.8,1.4,1.4.3.6.5,1.3.5,2.1s-.2,1.5-.5,2.1c-.3.6-.8,1.1-1.4,1.4-.6.3-1.3.5-2,.5ZM1140.1,379.1c.7,0,1.3-.2,1.8-.5s1-.8,1.3-1.3c.3-.6.5-1.2.5-2s-.2-1.4-.5-2-.7-1-1.3-1.3c-.5-.3-1.2-.5-1.8-.5s-1.3.2-1.8.5c-.5.3-1,.8-1.3,1.3-.3.6-.5,1.2-.5,2s.2,1.4.5,2c.3.6.7,1,1.3,1.3.5.3,1.1.5,1.8.5Z"/>
        <path class="st14" d="M1149.8,379.3c-.7,0-1.3-.1-1.8-.4s-.9-.6-1.1-1.1c-.3-.5-.4-1.1-.4-1.8v-4.7h.3v4.7c0,1,.3,1.7.8,2.3s1.2.8,2.2.8,1.2-.1,1.7-.4c.5-.3.9-.7,1.1-1.2.3-.5.4-1.1.4-1.8v-4.4h.3v8h-.3v-2.3h0c-.2.7-.6,1.3-1.2,1.7-.6.4-1.2.6-2.1.6Z"/>
        <path class="st14" d="M1156.9,379.3v-8h.3v2.2h0c.2-.7.6-1.3,1.1-1.7s1.2-.6,2-.6v.3h0c-1,0-1.7.3-2.2.9-.5.6-.8,1.5-.8,2.5v4.3h-.3Z"/>
        <path class="st14" d="M1164.4,379.3c-.6,0-1.1,0-1.5-.3-.4-.2-.7-.4-1-.8-.2-.3-.3-.7-.3-1.2s0-.7.3-1.1c.2-.3.5-.6.9-.8.4-.2,1-.3,1.7-.3h3.2v.3h-3.2c-.9,0-1.6.2-1.9.5-.4.3-.6.8-.6,1.3s.2,1.1.7,1.4c.4.4,1.1.5,1.9.5s1.4-.2,1.9-.5c.5-.4.9-.9,1.1-1.5l.2.2c-.2.6-.6,1.2-1.1,1.5s-1.2.6-2.1.6ZM1167.4,379.3v-5.2c0-.8-.2-1.5-.7-1.9-.4-.4-1.1-.6-1.9-.6s-1.1.1-1.6.3c-.5.2-.9.5-1.3.8l-.2-.2c.4-.4.8-.7,1.4-.9.5-.2,1.1-.3,1.7-.3.9,0,1.6.2,2.1.7.5.5.7,1.2.7,2.1v5.2h-.3Z"/>
        <path class="st14" d="M1174.2,379.3c-.8,0-1.4-.2-2-.5-.6-.3-1.1-.8-1.4-1.4-.3-.6-.5-1.3-.5-2.1s.2-1.5.5-2.1c.3-.6.8-1.1,1.4-1.4.6-.3,1.3-.5,2-.5s1.1.1,1.6.3.9.5,1.3,1l-.2.2c-.3-.4-.7-.7-1.2-.9-.5-.2-1-.3-1.5-.3s-1.3.2-1.9.5c-.5.3-1,.8-1.3,1.3-.3.6-.5,1.2-.5,2s.2,1.4.5,2c.3.6.7,1,1.3,1.3.5.3,1.2.5,1.9.5s1-.1,1.5-.3c.5-.2.9-.5,1.2-.9l.2.2c-.3.4-.8.8-1.3,1s-1,.3-1.6.3Z"/>
        <path class="st14" d="M1182.5,379.3c-.8,0-1.4-.2-2-.5-.6-.3-1.1-.8-1.4-1.4-.3-.6-.5-1.3-.5-2.1s.2-1.5.5-2.1c.3-.6.8-1.1,1.4-1.4.6-.3,1.3-.5,2-.5s1.1.1,1.6.3.9.5,1.3,1l-.2.2c-.3-.4-.7-.7-1.2-.9-.5-.2-1-.3-1.5-.3s-1.3.2-1.9.5c-.5.3-1,.8-1.3,1.3-.3.6-.5,1.2-.5,2s.2,1.4.5,2c.3.6.7,1,1.3,1.3.5.3,1.2.5,1.9.5s1-.1,1.5-.3c.5-.2.9-.5,1.2-.9l.2.2c-.3.4-.8.8-1.3,1s-1,.3-1.6.3Z"/>
        <path class="st14" d="M1190.7,379.3c-.7,0-1.4-.2-2-.5-.6-.3-1-.8-1.4-1.4-.3-.6-.5-1.3-.5-2.1s.2-1.5.5-2.1c.3-.6.8-1.1,1.4-1.4.6-.3,1.2-.5,2-.5s1.4.2,2,.5c.6.3,1.1.8,1.4,1.4.3.6.5,1.3.5,2.1s-.2,1.5-.5,2.1c-.3.6-.8,1.1-1.4,1.4-.6.3-1.3.5-2,.5ZM1190.7,379.1c.7,0,1.3-.2,1.8-.5s1-.8,1.3-1.3c.3-.6.5-1.2.5-2s-.2-1.4-.5-2-.7-1-1.3-1.3c-.5-.3-1.2-.5-1.8-.5s-1.3.2-1.8.5c-.5.3-1,.8-1.3,1.3-.3.6-.5,1.2-.5,2s.2,1.4.5,2c.3.6.7,1,1.3,1.3.5.3,1.1.5,1.8.5Z"/>
        <path class="st14" d="M1200.4,379.3c-.7,0-1.3-.1-1.8-.4s-.9-.6-1.1-1.1c-.3-.5-.4-1.1-.4-1.8v-4.7h.3v4.7c0,1,.3,1.7.8,2.3s1.2.8,2.2.8,1.2-.1,1.7-.4c.5-.3.9-.7,1.1-1.2.3-.5.4-1.1.4-1.8v-4.4h.3v8h-.3v-2.3h0c-.2.7-.6,1.3-1.2,1.7-.6.4-1.2.6-2.1.6Z"/>
        <path class="st14" d="M1207.5,379.3v-8h.3v2.3h0c.2-.7.6-1.3,1.2-1.7.6-.4,1.3-.6,2.2-.6s1.2.1,1.7.4.8.6,1.1,1.1c.3.5.4,1.1.4,1.8v4.7h-.3v-4.7c0-1-.3-1.7-.8-2.3-.5-.5-1.2-.8-2.1-.8s-1.3.1-1.8.4c-.5.3-.9.7-1.2,1.2-.3.5-.4,1.1-.4,1.8v4.4h-.3Z"/>
        <path class="st14" d="M1216.4,371.6v-.3h4.6v.3h-4.6ZM1219.9,379.3c-.6,0-1.1-.2-1.4-.5-.3-.4-.5-.8-.5-1.4v-7.8h.3v7.8c0,.6.1,1,.4,1.3.3.3.7.4,1.2.4s1-.2,1.3-.5l.2.2c-.2.2-.4.3-.7.4s-.6.1-.9.1Z"/>
      </g>
    </g>
    <text class="st2" transform="translate(2249.3 468.1)"><tspan x="0" y="0">Lorem ipsum</tspan></text>
  </g>
</svg>