<?xml version="1.0" encoding="UTF-8"?>
<svg id="_x2014_ÎÓÈ_x5F_1" xmlns="http://www.w3.org/2000/svg" version="1.1" viewBox="0 0 4000 4000">
  <!-- Generator: Adobe Illustrator 30.3.0, SVG Export Plug-In . SVG Version: 2.1.3 Build 182)  -->
  <defs>
    <style>
      .st0 {
        fill: #ef7a00;
      }

      .st1 {
        fill: #e8a927;
      }

      .st2 {
        fill: #a54c00;
      }

      .st3 {
        fill: #fca301;
      }

      .st4 {
        fill: #fdd72a;
      }

      .st5 {
        fill: #fcc401;
      }

      .st6 {
        fill: #fef55c;
      }

      .st7 {
        fill: #fdfb91;
      }
    </style>
  </defs>
  <path class="st2" d="M839,2978.4c41.2,2.8,83.2,1,124.5.6v125.8s-126,0-126,0c.2-41.8-.3-83.8,1.1-125.5l.3-.9Z"/>
  <path class="st3" d="M1087.1,475.8h126.2c0-.1.2,121.4.2,121.4h-125.8c.1,42.7-2,86.7.8,129.1-42.1-1.3-84.5-.4-126.6-.3l-.3-129.1c41.8.4,83.5.5,125.3.3l.2-121.4Z"/>
  <path class="st0" d="M463.8,2415.2l123-.4,1,212.4c.2,31.9-1.6,65,.5,96.8.7,18.5,3.6,42-1.1,59.7v-60.1c-40.8-.6-81.5-.6-122.2,0l-1.2-308.5Z"/>
  <path class="st0" d="M2836.4,477.9c41.6.6,83.2.7,124.9.3,0,42.9-.9,86.2.5,129.1,42.2.4,84.4.5,126.6.4,0,39.5-1.1,79.4.1,118.8-13.5,1.7-28.7.5-42.3.4l-84.8-.4-.2.8c-21.5-4.9-99-1-124.9-1.1v-117.7c-.6-43.6-.6-87.1,0-130.7Z"/>
  <path class="st3" d="M2836.4,608.6c27.4,0,54.8,0,82.2-.2,14-.1,28.8-1.4,42.7-.2-1.5,39.1-1.7,79.3.2,118.4l-.2.8c-21.5-4.9-99-1-124.9-1.1v-117.7Z"/>
  <path class="st2" d="M713.1,2724.2h124.4c0,0,.9,130.3.9,130.3,0,41-2,83,.5,123.9l-.3.9c-41.8-.9-83.8-.2-125.7-.6l.2-125.7-126.4-.4.4-68.9c4.7-17.8,1.7-41.2,1.1-59.7l124.8.3Z"/>
  <path class="st0" d="M713.1,2724.2h124.4c0,0,.9,130.3.9,130.3-41.8-1.1-83.7.3-125.6-.7l.2-129.6Z"/>
  <path class="st3" d="M601.3,977.5c37.1,1.3,74.8,1,112-.2v125.8c-26.1.2-52.5-.3-78.7,1.4l-30-.3-15.9.4c-5.2,7.3-2.5,277.4-1.7,309.5-41.3,0-82.5,0-123.8.4l-.3-310.7c17.5.4,113.8,3.7,122.5-3.2.4-40.1-1.1-80.6.7-120.7,4.7-3.4,9.8-2.6,15.3-2.5Z"/>
  <path class="st7" d="M604.5,1104.2l30,.3c25.7,1.5,51.8.5,77.6.2-2,71.2-.6,142.8-.5,214,0,26.6-3.2,72.3,1.1,97.1l-124.6-.4-.2,123.5c-41.6.4-83.1.5-124.7.3-.3-41.6-.3-83.2,0-124.8,41.2-.3,82.5-.5,123.8-.4-.8-32.1-3.4-302.2,1.7-309.5l15.9-.4Z"/>
  <path class="st6" d="M962,726c42.2,0,84.5-1,126.6.3,1.3,41.9.4,84,.3,125.9-41.7,1-83.4,1.1-125.2.5v123.8c-41.7.4-83.2.5-124.8.1v128.1c-41.7.3-83.3.3-124.9,0-.9,71.5-1,143-.2,214.5.1,30.5,3.7,66.4-1,96.4-4.4-24.8-1.1-70.5-1.1-97.1,0-71.2-1.5-142.8.5-214-25.8.3-51.8,1.3-77.6-.2,26.2-1.7,52.6-1.2,78.8-1.4v-125.8c-37.2,1.3-74.9,1.5-112,.2,35.8-3.5,74.4-1.2,110.5-1.5.4-40.6-2.9-82.9.7-123.2,36.1.1,72.2,0,108.3-.2l15.3-1.4.2-125h125.6Z"/>
  <path class="st3" d="M712.5,852.7c36.1.1,72.2,0,108.3-.2,5.3.4,11-.3,15.4,2.7,3.8,39.4,1,81.1.8,120.8l-123.8.3c.4-41.1,1.3-82.5-.7-123.6Z"/>
  <path class="st3" d="M836.3,726.1h125.6c0-.1-.2,124.9-.2,124.9h-125.6c0,0,.2-124.9.2-124.9Z"/>
  <path class="st2" d="M1524.2,3478c195.4,1.8,390.9,2.4,586.3,1.8,136.9,0,274.8,2.8,411.7-1.8-.6,40.2.1,80.5.3,120.8l-664-.8c-111.4.2-223-1.1-334.4.6v-120.5Z"/>
  <path class="st3" d="M342.7,1415l120.4-.5c-.2,41.6-.2,83.2,0,124.8l.4,575.7c0,100-2.2,200.4.1,300.2h-119.3c1.4-333.3.8-666.8-1.8-1000.2Z"/>
  <path class="st3" d="M1526,226.8l996.4,1c0,41.1-2.3,83.8.5,124.7-30.7-3.6-64.2-1.2-95.3-1.2h-180.3c0,0-596.5-.2-596.5-.2-41.6-.6-83.2.7-124.8-.3v-124Z"/>
  <path class="st2" d="M3564.2,1103.5l20.3-.4.3,311.8h120.5c0,0,.7,999,.7,999-40.4-.3-80.9-.2-121.3.3l.4,310.1c-41.7-.4-83.7-2.5-125.4-1.5v129.8s-124.9.1-124.9.1v-130.2c41.8-.3,83.5-.2,125.3,0l.5-308.2c41.4-.3,82.8-.2,124.2.2-1.3-183.7,1.5-367.5,1.6-551.2,0-149.3-3-298.7-1.2-448-40.6.8-81.3.3-122,.2.2-103.6-2.2-207.5-.3-311.1,33.2.4,68.3,2.7,101.3-.9Z"/>
  <path class="st4" d="M1470.4,352.5c17.2-3.5,37.9-1.7,55.6-1.7,41.6,1,83.2-.3,124.8.3h596.5c0,.1,180.3.2,180.3.2,31.1,0,64.6-2.5,95.3,1.2v2c104.1,2.8,208.6.5,312.7.7.5,40.9.8,81.7.8,122.6-.7,43.6-.7,87.1,0,130.7v117.7c25.9,0,103.4-3.8,124.9,1.1,1.6,41.7.6,83.7.6,125.4,0,40.6,2.5,83,0,123.4v1.7c-41.6.2-83.4.9-125.1-.3-21.7-2.8-44.6-1.2-66.4-1.2h-120.8c.8-41.1,1.3-82.2,1.3-123.4-29.4-3-61.1-1-90.7-1-53.4,0-106.9-.8-160.3.5.6-42.1,1-84.2,1.1-126.3h-749.9c0-.1-249.7.5-249.7.5v124.7s.1,125.2.1,125.2l-187.7,1c-41.7.6-83.3.8-125,.5v125.4c-41.7.6-83.4.9-125.1,1v185.6c-.1,0,.2,248.7.2,248.7h-125.6c0,0,.3,747,.3,747,40.9.3,81.7.3,122.6,0l2.1,248.7,123.5-.2,1.5,190.7c-.3,13.8.4,28.4-1.2,42l-.2,87.3h-122.8c-.5,41.6-.6,83.2-.5,124.7-41.3.4-83.3,2.2-124.5-.6-2.6-40.9-.6-82.9-.5-123.9l-.9-130.3h-124.4c0,0-124.8-.2-124.8-.2-2.1-31.8-.2-64.9-.5-96.8l-1-212.4-123,.4c-2.3-99.9-.1-200.3-.1-300.2l-.4-575.7c41.6.2,83.1,0,124.7-.3l.2-123.5,124.6.4c4.7-30,1.2-65.9,1-96.4-.8-71.5-.7-143,.2-214.5,41.6.2,83.2.2,124.8,0v-128.1c41.7.3,83.2.3,124.8-.1v-123.8c41.8.6,83.6.4,125.3-.5.1-41.9,1.1-84-.3-125.9-2.9-42.4-.7-86.4-.8-129h125.8c0,0-.2-121.6-.2-121.6.1-40.9,0-81.8-.3-122.7l257.4-.4Z"/>
  <path class="st7" d="M1470.4,352.5c17.2-3.5,37.9-1.7,55.6-1.7,41.6,1,83.2-.3,124.8.3l.2,122.8c-41.6,0-83.3-.6-124.8.3v-121.9c-18.6.6-37.2.6-55.7.2Z"/>
  <path class="st0" d="M838.5,2854.5c41.8.2,83.7.2,125.5,0-.5,41.5-.6,83-.5,124.6-41.3.4-83.3,2.2-124.5-.6-2.6-40.9-.6-82.9-.5-123.9Z"/>
  <path class="st6" d="M1213.5,597.2c32.1,0,125.2-4.2,151.5,1.6-50.1,2.2-100.9,1-151.1.3v127.3c-41.6,0-83.9,1.7-125.4,0-2.9-42.4-.7-86.4-.8-129h125.8Z"/>
  <path class="st3" d="M1213.8,851.8c62.4-1.4,125.1-.4,187.6-.5v125.2c0,0-187.6,1-187.6,1,.6-41.8,0-83.8,0-125.7Z"/>
  <path class="st0" d="M2523.1,354.5c104,2.8,208.5.5,312.6.7.5,40.9.8,81.7.8,122.6-104.1-5-209.9-1.8-314.2-1.8-.1-39.7-3.2-82.1.9-121.5Z"/>
  <path class="st3" d="M1470.4,352.5c18.6.5,37.1.4,55.7-.2v121.9s-208,.4-208,.4c-25.4,0-65.2-3.2-88.5.9h-16.3c.1-40.8,0-81.7-.3-122.6l257.4-.4Z"/>
  <path class="st7" d="M1229.6,475.5c98.5,3.3,198.1.3,296.8.3v123c0,0-161.3,0-161.3,0-26.3-5.7-119.4-1.7-151.5-1.6l-.2-121.5h16.3Z"/>
  <path class="st3" d="M2961.8,852.8c0,40.6,2.5,83,0,123.4v1.7c-41.6.2-83.4.9-125.1-.3-21.7-2.8-44.6-1.2-66.4-1.2h-120.8c.8-41.1,1.3-82.2,1.3-123.4,62.1,1.8,125.3,1.7,187.4,0,40.9-1.8,82.7-.2,123.6-.2Z"/>
  <path class="st5" d="M2961.8,852.8c0,40.6,2.5,83,0,123.4h-124.2c1.6-40.9,1.2-82.3.6-123.2,40.9-1.8,82.7-.2,123.6-.2Z"/>
  <path class="st3" d="M1651.1,601.8l481.4,1.4c88.2.5,179.2,4.7,267.2.6.5,40.8.6,81.6.5,122.4l250.6-.2c0,42.2-1.3,84.8,0,127-29.4-3-61.1-1-90.7-1-53.4,0-106.9-.8-160.3.5.6-42.1,1-84.2,1.1-126.3h-749.9c0-.1,0-124.3,0-124.3Z"/>
  <path class="st3" d="M838.1,1290.6c41.8.4,83.7.3,125.5-.4l.3,248.7h-125.6c0,0,.3,747,.3,747,40.9.3,81.7.3,122.6,0l2.1,248.7,123.5-.2,1.5,190.7c-.3,13.8.4,28.4-1.2,42-1.1-13.7-.4-27.9-.3-41.6l-123.6-1.1.2-189.5c-42.1.3-84.2.4-126.4.2,2.6-82.9.6-166.1,1.5-249.1-42-2.1-84.9-.5-127-.8v-746.4c-.1,0,125.6,0,125.6,0,0-82.7-.8-165.6,1.1-248.2Z"/>
  <path class="st1" d="M2961.4,726.5l84.8.4c13.6,0,28.8,1.3,42.3-.4l.4,1.3c41.5,1.3,83.1.7,124.7.7,0,41.4-.5,82.9,0,124.3,41,.4,82,.4,123,.2l.3,124.9c34.6.7,69.5-.7,104.1.5l21.1-.4c1.5,41.6.6,83.5.6,125.2,33.7,0,67.6-.6,101.3.2-33,3.6-68.1,1.3-101.3.9-2,103.5.4,207.5.3,311.1,40.6,0,81.3.6,122-.2-1.8,149.3,1.3,298.7,1.2,448,0,183.7-2.9,367.5-1.6,551.2-41.4-.4-82.8-.5-124.2-.2l-.5,308.2c-41.8-.3-83.6-.3-125.3,0v130.2s0,125.7,0,125.7c-41.2,0-82.5-.7-123.6,0v71c0,0,.3,55.3.3,55.3l-125.2.3-.6,7.4.2,116.1c-41.4,0-83.4-1.3-124.7.4l-1.2,1.2c-.3,41.5-.3,82.9-.1,124.4-22,0-111.1-3.4-125,1.9l.5,118.8-202.2.3c-36.5.1-73.4-.9-109.8,1l-1.1,1.6c-136.8,4.6-274.7,1.8-411.7,1.8-195.4.6-390.9,0-586.3-1.8l-1.2-1.5c-35.1-2.7-71.9-.7-107.1-.7h-202.1c0,0,0-120.8,0-120.8h-125.3c0,0,0-125.5,0-125.5-41.3,1.9-83.4.3-124.8.3v-124.9c-.1,0-.1-125.8-.1-125.8-.1-41.5,0-83,.5-124.6h122.8c42,2.1,84.8.4,126.9,0v125.4c0,0,175.6-.3,175.6-.3-1.3,41.8-1,83.6-1.7,125.4,56.4-.4,112.8-.3,169.2.3,30.8.4,64.6,3.6,95.1-.2,64.3-1.4,128.9-.4,193.2-.4h343.5s135.4,0,135.4,0c24.1,0,48.7,1.1,72.8-.3,1.5-41.4.2-83.3.3-124.7l252.1-.2c-1-41.5-.4-83.2-.5-124.7l188.3-.2c0-42.9-.9-85.9.9-128.7,41.9.4,83.9.2,125.8-.6-.4-61.6-.4-123.1-.1-184.7,41.5.9,83.1,0,124.6-.3l.3-.9c2.2-29.4.4-60,.6-89.6l1.6-160.8,122.6-.3v-748.2c-41.6-1.6-83.4-.8-125-.9v-247.7c-41.7.7-83.4.9-125.1.4v-187.4c-42.4.4-84.8.3-127.2-.3.4-18.4.5-36.8.4-55.2l.3-71.6c41.7,1.2,83.5.5,125.2.3v-1.7c2.4-40.4,0-82.8-.1-123.4,0-41.7,1-83.7-.6-125.4l.2-.8Z"/>
  <path class="st2" d="M2959.7,3104.8c26.8,0,102.5-3.9,123.9,1.7l1.9,5.7.2,116.1c-41.4,0-83.4-1.3-124.7.4-5.4-18.5-1.4-98.4-1.3-123.9Z"/>
  <path class="st2" d="M3213.8,852.9c41,.4,82,.4,123,.2l.3,124.9c-40.8,3-82.6,1.3-123.5,1.1l.2-126.2Z"/>
  <path class="st2" d="M3086.2,2979.6c41.2.3,82.4.2,123.7-.3-.1,22.9-1.7,47.3,1.2,70l.3,55.3-125.2.3c-1-41.7-.2-83.5,0-125.2Z"/>
  <path class="st2" d="M2834.6,3229.8h125.3c-.3,41.6-.3,83-.1,124.5-22,0-111.1-3.4-125,1.9l-.5-.8c2.1-41.4.3-84,.3-125.5Z"/>
  <path class="st2" d="M3441.2,978.5l21.1-.4c-2.2,41.7-.7,83.9-.6,125.6-41.4,2.4-83.3,1-124.8.8,0-41.8,0-83.6.4-125.4,34.2.5,69.8,2.5,103.9-.8Z"/>
  <path class="st2" d="M3089,727.8c41.5,1.3,83.1.7,124.7.7,0,41.4-.5,82.9,0,124.3h-126c.6-41.3-2.5-83.9,1.2-125Z"/>
  <path class="st2" d="M963.5,3104.9l125.1-.2-.2,124.8c-41.3,1.9-83.4.3-124.8.3v-124.9Z"/>
  <path class="st2" d="M3210.5,2852.2c41.4,0,82.9-1.2,124.2.4v125.7c-41.2,0-82.6-.7-123.7,0-1.5-42-.6-84.1-.5-126.1Z"/>
  <path class="st2" d="M1088.5,3229.5c41.8-.9,83.7.4,125.5-.2,0,41.8,1.1,83.9-.2,125.7h-125.3c0,0,0-125.5,0-125.5Z"/>
  <path class="st0" d="M3090.7,2288.8l122.6-.3c0,83.8-1.3,167.9.3,251.7-27.1-.5-54.2-.8-81.3-1-13.8,0-30.2,2.1-43.7,0,2.2-29.4.4-60,.6-89.6l1.6-160.8Z"/>
  <path class="st2" d="M2522.1,3354.9c104,.2,208.3-1.9,312.2.4l.5.8.5,118.8-202.2.3c-36.5.1-73.4-.9-109.8,1-5.2-21.1-1.3-94.7-1.2-121.3Z"/>
  <path class="st2" d="M1213.8,3355h312.1c.1,18,3.4,112.1-2.9,121.5-35.1-2.7-71.9-.7-107.1-.7h-202.1c0,0,0-120.8,0-120.8Z"/>
  <path class="st0" d="M1651.9,3105.1c64.3-1.4,128.9-.4,193.2-.4h343.5s135.4,0,135.4,0c24.1,0,48.7,1.1,72.8-.3-1.6,41.4,0,83.6,0,125.1-248.2-3.2-496.9-.7-745.2,0l.3-124.2Z"/>
  <path class="st0" d="M2963.6,2540.4c41.5.9,83.1,0,124.6-.3l.4,184.3c-41.2,0-82.4.2-123.6.7v129.5c-42.4-.4-84.8-.6-127.3-.5.6,41.8,0,83.6.9,125.3l-188.9-.3c.7,41.6-.7,83.6,1,125.2l-166.3-.2c-29.1,0-58.5-1.1-87.5.2,1.5-41.4.2-83.3.3-124.7l252.1-.2c-1-41.5-.4-83.2-.5-124.7l188.3-.2c0-42.9-.9-85.9.9-128.7,41.9.4,83.9.2,125.8-.6-.4-61.6-.4-123.1-.1-184.7Z"/>
  <path class="st0" d="M2836.7,977.5c41.7,1.2,83.5.5,125.2.3,5.8,27,1.2,94,1.3,125.7,41.7-.5,83.7,1.7,125.3.2l-.2,186.9,125.3-.2c-.3,83.1,1.1,166.3,0,249.4,41.1.8,82,.2,123.1.4-2.9,79.5-.8,159.7-.7,239.3l1.9,508.9c-41.5,0-82.9-.5-124.4,0v-748.2c-41.6-1.6-83.4-.8-125-.9v-247.7c-41.7.7-83.4.9-125.1.4v-187.4c-42.4.4-84.8.3-127.2-.3.4-18.4.5-36.8.4-55.2l.3-71.6Z"/>
  <path class="st3" d="M2557.5,1454.7c9.1-20.7,24.4-41.8,37-60.8,33.8-51.4,70.6-100.6,105.6-151.2,30.1-44.1,60.4-87.9,91.1-131.6,14.3-20.3,28.2-44.1,45.3-62.1.1,18.4,0,36.8-.4,55.2,42.4.5,84.8.6,127.2.3v187.4c41.7.5,83.4.4,125.1-.4v247.7c41.7,0,83.5-.7,125.1.9v748.2s-122.7.3-122.7.3l-1.6,160.8c-.2,29.6,1.7,60.2-.6,89.6l-.3.9c-41.5.3-83.1,1.2-124.6.3-.3,61.6-.3,123.1.1,184.7-41.9.7-83.9.9-125.8.6-1.8,42.8-.9,85.9-.9,128.7l-188.3.2c0,41.5-.5,83.2.5,124.7l-252.1.2c0,41.4,1.2,83.4-.3,124.7-24,1.4-48.7.3-72.8.3h-135.4c0,0-343.5,0-343.5,0-64.4,0-128.9-1-193.2.4-30.4,3.7-64.2.5-95.1.2-56.4-.6-112.8-.7-169.2-.3.7-41.8.4-83.6,1.7-125.4l-175.7.3v-125.4c-42,.3-84.8,2.1-126.8-.2l.2-87.3c1.7-13.6,1-28.2,1.2-42,26.1.4,52.1.9,78.2.2,3.6-5.3,332.6-227.9,366.8-252.6-2.3-39.5-1.2-79.5-1.5-119.1l119.5-.4v-127.2l175.5-.3v-181.4s136.8,0,136.8,0v-126.9c0,0,125-.4,125-.4v-124.4s125.5-.2,125.5-.2c1.8-41.5.9-83.2.8-124.8h124.1c.6-41.7.2-83.5.3-125.2h124.3s.2-87.5.2-87.5h93.7Z"/>
  <path class="st0" d="M1166.4,2725.2l47.6-.2v129.5s177.4,0,177.4,0l-.2,125.1h260.8c0,0-.2,125.5-.2,125.5-30.4,3.7-64.2.5-95.1.2-56.4-.6-112.8-.7-169.2-.3.7-41.8.4-83.6,1.7-125.4l-175.7.3v-125.4c-42,.3-84.8,2.1-126.8-.2l.2-87.3c1.7-13.6,1-28.2,1.2-42,26.1.4,52.1.9,78.2.2Z"/>
  <path class="st0" d="M2720.6,1702.3h118.1s.4,520.2.4,520.2l-258-.2.4,250.1-250.4-.4.3,248.9c-183.8,3.6-367.8-6.5-551.5-1.9,0-31.5-1-63.2.2-94.6l433.9,1.3.5-272.9c82.8.1,165.5-.3,248.3-1.3,1-82.1.6-164.1.5-246.2h161.3s96.8,0,96.8,0l-.9-241.2c-.4-53.8-1.9-108,.2-161.7Z"/>
  <path class="st5" d="M2557.5,1454.7l31.5-.5v213s34.8,0,34.8,0h96.4c0,11.5-.2,23.3.4,34.9-2.1,53.7-.6,108-.2,161.7l.9,241.2h-96.8c0,0-161.3,0-161.3,0,0,82,.5,164.1-.5,246.2-82.8,1-165.5,1.5-248.3,1.3l-.5,272.9-433.9-1.3c.4-33.3.5-66.5.4-99.8l-.3-52.8c-82.3-.2-164.5,0-246.8.8-2.3-39.5-1.2-79.5-1.5-119.1l119.5-.4v-127.2l175.5-.3v-181.4s136.8,0,136.8,0v-126.9c0,0,125-.4,125-.4v-124.4s125.5-.2,125.5-.2c1.8-41.5.9-83.2.8-124.8h124.1c.6-41.7.2-83.5.3-125.2h124.3s.2-87.5.2-87.5h93.7Z"/>
  <path class="st6" d="M2238.5,2104.9h103.6c-1.9,39.4-.1,79.2-.8,118.7-8.8,4.9-88.2,2-102.6,2l-.3-120.8Z"/>
  <path class="st6" d="M2589,1667.3h34.7c0,0,0,124.8,0,124.8-53.1-1.6-106.8,0-159.9.1l-.4-124.9h125.5Z"/>
  <path class="st6" d="M1779.9,2352.9c40.2,0,80.8-1.2,121,.5.3,57.1-.6,114.3,0,171.4-40.2.4-80.4,0-120.6-.2l-.3-52.8v-119Z"/>
  <path class="st0" d="M2557.5,1454.7l31.5-.5v213s-125.5,0-125.5,0v-125.1c0,0,.3-87.5.3-87.5h93.7Z"/>
  <path class="st0" d="M1651.3,2353.1l128.7-.3v119c-82.2-.2-164.4,0-246.7.8-2.3-39.5-1.2-79.5-1.5-119.1l119.5-.4Z"/>
  <path class="st4" d="M1900.9,2353.4c20.4,2.9,42.5,1.5,63.1,1.5,42.2,0,84.6-.9,126.8-.1v171.4c-63.3,0-126.5-.5-189.8-1.4-.6-57.1.2-114.3,0-171.4Z"/>
  <path class="st1" d="M1401.3,726.6l249.7-.6h749.9c-.2,42.2-.5,84.3-1.1,126.4,53.4-1.3,106.9-.6,160.3-.5,29.7,0,61.3-2,90.7,1,0,41.1-.4,82.3-1.3,123.4h120.8c21.9,0,44.8-1.6,66.4,1.2l-.3,71.6c-17.1,17.9-31,41.8-45.3,62.1-30.7,43.7-61,87.5-91.1,131.6-35,50.6-71.8,99.8-105.6,151.2-12.5,19-27.8,40.1-37,60.8h-93.7s-.2,87.5-.2,87.5h-124.3c0,41.8.3,83.6-.3,125.3h-124.1c0,41.5,1,83.2-.8,124.7l-125.4.2v124.4s-124.9.4-124.9.4v126.9c0,0-136.9,0-136.9,0v181.4s-175.6.3-175.6.3v127.2l-119.5.4c.2,39.6-.9,79.6,1.5,119.1-34.2,24.6-363.2,247.2-366.8,252.6-26.1.7-52.1.2-78.2-.2l-1.5-190.7-123.5.2-2.1-248.7c-40.9.3-81.7.4-122.6,0l-.3-747.1h125.6c0,0-.3-248.7-.3-248.7v-185.6c41.8-.1,83.5-.5,125.2-1v-125.4c41.6.3,83.3,0,124.9-.5l187.7-1v-125.2c0,0-.1-124.7-.1-124.7Z"/>
  <path class="st3" d="M1088.8,978c41.7.3,83.3,0,125-.5v126.8c-41.5-.9-83.6,1.3-124.9-.9v-125.4Z"/>
  <path class="st3" d="M1088.8,1103.5v185.7c-41.6,0-83.6-.8-125.2.9v-185.6c41.8-.1,83.5-.5,125.2-1Z"/>
  <path class="st0" d="M1401,2105h129c0-.1,0,118.2,0,118.2-84.5-1.7-169.4.2-253.9.5,0-39-2.8-80,1-118.8h123.9Z"/>
  <path class="st3" d="M1401.3,726.6l249.7-.6.2,125.7c-83.1-.2-166.8,1.7-249.9-.4v-124.7Z"/>
  <path class="st6" d="M1780,1163.6h310.4c1.1,42.8.3,85.6.2,128.4l-189.7.3.2,247.8c-83.4-.2-166.8-2.1-250.2-.5l.2,249h-250.3c0,0,0,316.4,0,316.4h-123.9c3.7-50.8.4-103.9.3-154.9l-.8-284.7,253.6.6v-248.5s250,0,250,0v-253.8Z"/>
  <path class="st4" d="M2090.4,1163.7h123.2c0,.1,125,.2,125,.2v251.9c41.8,1.2,83.5.9,125.2,1.1v37.8s-.2,87.5-.2,87.5h-124.3c0,41.8.3,83.6-.3,125.3h-124.1c0,41.5,1,83.2-.8,124.7l-125.4.2v124.4s-124.9.4-124.9.4v126.9c0,0-136.9,0-136.9,0v181.4s-175.6.3-175.6.3v127.2l-119.5.4c-5.4-24.7-1.8-100.8-1.7-130.3v-118.4s-129.1.1-129.1.1v-316.4c0,0,250.2,0,250.2,0l-.2-249c83.3-1.7,166.8.3,250.2.5l-.2-247.8,189.7-.3c0-42.8.8-85.6-.2-128.4Z"/>
  <path class="st0" d="M2213.6,1163.8h125c0,0,.1,252,.1,252h-125.3s.2-252,.2-252Z"/>
</svg>